<?xml version="1.0" encoding="utf-8"?>
<!-- Generator: Adobe Illustrator 14.0.0, SVG Export Plug-In . SVG Version: 6.00 Build 43363)  -->
<!DOCTYPE svg PUBLIC "-//W3C//DTD SVG 1.1//EN" "http://www.w3.org/Graphics/SVG/1.1/DTD/svg11.dtd">
<svg version="1.1" id="Layer_1" xmlns="http://www.w3.org/2000/svg" xmlns:xlink="http://www.w3.org/1999/xlink" x="0px" y="0px"
	 width="60px" height="180px" viewBox="0 0 60 180" enable-background="new 0 0 60 180" xml:space="preserve">
<g id="google_x2B_">
	<rect y="60" fill="#4F4F55" width="30" height="30"/>
	<g>
		<path fill="#FFFFFF" d="M15.101,75.851c-0.293-0.208-0.854-0.712-0.854-1.01c0-0.35,0.099-0.52,0.624-0.93
			c0.537-0.42,0.917-1.01,0.917-1.695c0-0.815-0.364-1.612-1.046-1.875h1.029l0.726-0.524H13.25c-1.455,0-2.825,1.104-2.825,2.382
			c0,1.303,0.992,2.357,2.473,2.357c0.104,0,0.203-0.004,0.301-0.01c-0.096,0.185-0.165,0.392-0.165,0.605
			c0,0.361,0.195,0.656,0.442,0.896c-0.186,0-0.367,0.006-0.562,0.006c-1.804,0-3.191,1.148-3.191,2.339
			c0,1.173,1.521,1.905,3.324,1.905c2.055,0,3.19-1.166,3.19-2.338C16.236,77.02,15.959,76.457,15.101,75.851z M13.368,74.224
			c-0.836-0.023-1.632-0.936-1.776-2.033c-0.144-1.098,0.417-1.939,1.253-1.914c0.835,0.023,1.631,0.905,1.775,2.004
			C14.765,73.378,14.204,74.25,13.368,74.224z M13.04,79.781c-1.247,0-2.146-0.789-2.146-1.736c0-0.928,1.116-1.703,2.362-1.688
			c0.291,0.004,0.562,0.052,0.809,0.13c0.675,0.473,1.161,0.736,1.298,1.271c0.026,0.109,0.04,0.222,0.04,0.336
			C15.402,79.041,14.792,79.781,13.04,79.781z"/>
		<polygon fill="#FFFFFF" points="18.561,74.32 18.561,73.057 17.544,73.057 17.544,74.32 16.28,74.32 16.28,75.337 17.544,75.337 
			17.544,76.602 18.561,76.602 18.561,75.337 19.825,75.337 19.825,74.32 		"/>
	</g>
</g>
<g id="google_x2B__1_">
	<rect y="90" fill="#0070A7" width="30" height="30"/>
	<path fill="#FFFFFF" d="M11.737,110.35h-2.27v-7.271h2.271L11.737,110.35L11.737,110.35z M10.544,102.169h-0.017
		c-0.822,0-1.354-0.555-1.354-1.26c0-0.718,0.55-1.262,1.388-1.262s1.353,0.543,1.369,1.26
		C11.93,101.613,11.398,102.169,10.544,102.169z M20.827,110.35h-2.576v-3.763c0-0.984-0.402-1.655-1.289-1.655
		c-0.677,0-1.054,0.452-1.229,0.892c-0.065,0.155-0.056,0.375-0.056,0.594v3.934h-2.551c0,0,0.032-6.664,0-7.27h2.551v1.141
		c0.151-0.499,0.966-1.211,2.269-1.211c1.613,0,2.882,1.046,2.882,3.298L20.827,110.35L20.827,110.35z"/>
</g>
<g id="facebook">
	<rect fill="#517CBF" width="30" height="30"/>
	<path fill="#FFFFFF" d="M17.482,13.118h-1.691v-1.109c0-0.417,0.277-0.514,0.471-0.514c0.193,0,1.192,0,1.192,0V9.664l-1.643-0.006
		c-1.824,0-2.24,1.366-2.24,2.24v1.221h-1.055v1.886h1.055c0,2.421,0,5.338,0,5.338h2.219c0,0,0-2.946,0-5.338h1.498L17.482,13.118z
		"/>
</g>
<g id="twitter">
	<rect y="30" fill="#66CBEE" width="30" height="30"/>
	<g>
		<g>
			<path fill="#FFFFFF" d="M20.128,41.338c-0.397,0.191-0.819,0.315-1.267,0.373c0.457-0.293,0.807-0.756,0.971-1.309
				c-0.426,0.271-0.898,0.463-1.4,0.575c-0.4-0.462-0.975-0.751-1.606-0.751c-1.215,0-2.2,1.061-2.2,2.371
				c0,0.184,0.019,0.366,0.056,0.537c-1.826-0.095-3.45-1.042-4.536-2.473c-0.189,0.35-0.297,0.756-0.297,1.191
				c0,0.82,0.388,1.55,0.979,1.969c-0.361-0.015-0.702-0.115-0.997-0.295c0,0.01,0,0.022,0,0.033c0,1.145,0.758,2.102,1.765,2.322
				c-0.184,0.054-0.379,0.079-0.582,0.079c-0.141,0-0.276-0.01-0.412-0.043c0.28,0.944,1.093,1.631,2.056,1.646
				c-0.754,0.639-1.702,1.014-2.734,1.014c-0.178,0-0.354-0.01-0.525-0.033c0.973,0.676,2.128,1.069,3.374,1.069
				c4.049,0,6.264-3.612,6.264-6.742c0-0.101-0.003-0.202-0.007-0.304C19.458,42.229,19.832,41.812,20.128,41.338z"/>
		</g>
	</g>
</g>
<rect x="30" y="60" fill="#555655" width="30" height="30"/>
<g>
	<path fill="#FFFFFF" d="M45.102,75.851c-0.293-0.208-0.854-0.712-0.854-1.01c0-0.35,0.099-0.52,0.624-0.93
		c0.537-0.42,0.917-1.01,0.917-1.695c0-0.815-0.364-1.612-1.046-1.875h1.029l0.726-0.524H43.25c-1.455,0-2.825,1.104-2.825,2.382
		c0,1.303,0.992,2.357,2.474,2.357c0.104,0,0.203-0.004,0.301-0.01c-0.096,0.185-0.165,0.392-0.165,0.605
		c0,0.361,0.194,0.656,0.442,0.896c-0.187,0-0.367,0.006-0.562,0.006c-1.805,0-3.191,1.148-3.191,2.339
		c0,1.173,1.521,1.905,3.324,1.905c2.055,0,3.189-1.166,3.189-2.338C46.236,77.02,45.959,76.457,45.102,75.851z M43.368,74.224
		c-0.836-0.023-1.632-0.936-1.776-2.033c-0.144-1.098,0.417-1.939,1.254-1.914c0.834,0.023,1.631,0.905,1.774,2.004
		C44.766,73.378,44.204,74.25,43.368,74.224z M43.04,79.781c-1.247,0-2.146-0.789-2.146-1.736c0-0.928,1.115-1.703,2.361-1.688
		c0.291,0.004,0.562,0.052,0.809,0.13c0.676,0.473,1.162,0.736,1.299,1.271c0.025,0.109,0.039,0.222,0.039,0.336
		C45.402,79.041,44.792,79.781,43.04,79.781z"/>
	<polygon fill="#FFFFFF" points="48.561,74.32 48.561,73.057 47.544,73.057 47.544,74.32 46.279,74.32 46.279,75.337 47.544,75.337 
		47.544,76.602 48.561,76.602 48.561,75.337 49.825,75.337 49.825,74.32 	"/>
</g>
<rect x="30" y="90" fill="#555655" width="30" height="30"/>
<path fill="#FFFFFF" d="M41.736,110.35h-2.271v-7.271h2.271V110.35z M40.544,102.169h-0.017c-0.822,0-1.354-0.555-1.354-1.26
	c0-0.718,0.55-1.262,1.388-1.262s1.354,0.543,1.369,1.26C41.93,101.613,41.398,102.169,40.544,102.169z M50.827,110.35h-2.576
	v-3.763c0-0.984-0.401-1.655-1.289-1.655c-0.677,0-1.054,0.452-1.229,0.892c-0.064,0.155-0.056,0.375-0.056,0.594v3.934h-2.551
	c0,0,0.032-6.664,0-7.27h2.551v1.141c0.151-0.499,0.966-1.211,2.269-1.211c1.613,0,2.883,1.046,2.883,3.298L50.827,110.35
	L50.827,110.35z"/>
<rect x="30" y="120" fill="#2190D7" width="30" height="30"/>
<rect x="30" y="150" fill="#2190D7" width="30" height="30"/>
<rect x="30" fill="#555655" width="30" height="30"/>
<path fill="#FFFFFF" d="M47.482,13.118h-1.691v-1.109c0-0.417,0.277-0.514,0.471-0.514s1.192,0,1.192,0V9.664l-1.644-0.006
	c-1.824,0-2.24,1.366-2.24,2.24v1.221h-1.055v1.886h1.055c0,2.421,0,5.338,0,5.338h2.22c0,0,0-2.946,0-5.338h1.498L47.482,13.118z"
	/>
<rect x="30" y="30" fill="#555655" width="30" height="30"/>
<g>
	<g>
		<path fill="#FFFFFF" d="M50.128,41.338c-0.397,0.191-0.819,0.315-1.267,0.373c0.457-0.293,0.807-0.756,0.971-1.309
			c-0.426,0.271-0.898,0.463-1.4,0.575c-0.399-0.462-0.975-0.751-1.605-0.751c-1.215,0-2.2,1.061-2.2,2.371
			c0,0.184,0.019,0.366,0.056,0.537c-1.826-0.095-3.449-1.042-4.535-2.473c-0.189,0.35-0.297,0.756-0.297,1.191
			c0,0.82,0.387,1.55,0.979,1.969c-0.361-0.015-0.702-0.115-0.997-0.295c0,0.01,0,0.022,0,0.033c0,1.145,0.758,2.102,1.765,2.322
			c-0.184,0.054-0.379,0.079-0.582,0.079c-0.141,0-0.275-0.01-0.412-0.043c0.28,0.944,1.094,1.631,2.057,1.646
			c-0.754,0.639-1.702,1.014-2.734,1.014c-0.178,0-0.354-0.01-0.525-0.033c0.974,0.676,2.129,1.069,3.375,1.069
			c4.049,0,6.264-3.612,6.264-6.742c0-0.101-0.003-0.202-0.008-0.304C49.458,42.229,49.832,41.812,50.128,41.338z"/>
	</g>
</g>
<g>
	<rect x="6" y="127.336" fill="#2190D7" width="18" height="2.3"/>
	<rect x="6" y="133.85" fill="#2190D7" width="18" height="2.299"/>
	<rect x="6" y="140.363" fill="#2190D7" width="18" height="2.3"/>
</g>
<g>
	
		<rect x="6.001" y="163.849" transform="matrix(0.7071 0.7071 -0.7071 0.7071 121.063 37.7181)" fill="#2190D7" width="18" height="2.301"/>
	
		<rect x="6" y="163.85" transform="matrix(-0.7071 0.7071 -0.7071 -0.7071 142.2769 271.0676)" fill="#2190D7" width="18" height="2.299"/>
</g>
<g>
	
		<rect x="36" y="163.849" transform="matrix(0.7071 0.7071 -0.7071 0.7071 129.8521 16.5073)" fill="#FFFFFF" width="17.999" height="2.3"/>
	
		<rect x="36" y="163.85" transform="matrix(-0.7071 0.7071 -0.7071 -0.7071 193.4921 249.852)" fill="#FFFFFF" width="17.999" height="2.299"/>
</g>
<g>
	<rect x="36" y="127.337" fill="#FFFFFF" width="18" height="2.299"/>
	<rect x="36" y="133.85" fill="#FFFFFF" width="18" height="2.299"/>
	<rect x="36" y="140.363" fill="#FFFFFF" width="18" height="2.299"/>
</g>
</svg>
